<mxfile host="app.diagrams.net" agent="Mozilla/5.0 (Windows NT 10.0; Win64; x64) AppleWebKit/537.36 (KHTML, like Gecko) Chrome/140.0.0.0 Safari/537.36" version="28.2.5">
  <diagram name="Página-1" id="kvD3PgZbJKVfITrOUFRw">
    <mxGraphModel dx="663" dy="1043" grid="1" gridSize="10" guides="1" tooltips="1" connect="1" arrows="1" fold="1" page="1" pageScale="1" pageWidth="827" pageHeight="1169" math="0" shadow="0">
      <root>
        <mxCell id="0" />
        <mxCell id="1" parent="0" />
        <mxCell id="bIs_BHF1-kpY5Y5wh83X-3" value="" style="edgeStyle=orthogonalEdgeStyle;rounded=0;orthogonalLoop=1;jettySize=auto;html=1;" edge="1" parent="1" source="bIs_BHF1-kpY5Y5wh83X-1" target="bIs_BHF1-kpY5Y5wh83X-2">
          <mxGeometry relative="1" as="geometry" />
        </mxCell>
        <mxCell id="bIs_BHF1-kpY5Y5wh83X-1" value="I" style="ellipse;whiteSpace=wrap;html=1;" vertex="1" parent="1">
          <mxGeometry x="354" y="70" width="120" height="80" as="geometry" />
        </mxCell>
        <mxCell id="bIs_BHF1-kpY5Y5wh83X-10" value="" style="edgeStyle=orthogonalEdgeStyle;rounded=0;orthogonalLoop=1;jettySize=auto;html=1;" edge="1" parent="1" source="bIs_BHF1-kpY5Y5wh83X-2" target="bIs_BHF1-kpY5Y5wh83X-5">
          <mxGeometry relative="1" as="geometry" />
        </mxCell>
        <mxCell id="bIs_BHF1-kpY5Y5wh83X-2" value="Ler N" style="shape=parallelogram;perimeter=parallelogramPerimeter;whiteSpace=wrap;html=1;fixedSize=1;" vertex="1" parent="1">
          <mxGeometry x="354" y="240" width="120" height="60" as="geometry" />
        </mxCell>
        <mxCell id="bIs_BHF1-kpY5Y5wh83X-7" value="" style="edgeStyle=orthogonalEdgeStyle;rounded=0;orthogonalLoop=1;jettySize=auto;html=1;" edge="1" parent="1" source="bIs_BHF1-kpY5Y5wh83X-5" target="bIs_BHF1-kpY5Y5wh83X-6">
          <mxGeometry relative="1" as="geometry" />
        </mxCell>
        <mxCell id="bIs_BHF1-kpY5Y5wh83X-28" value="" style="edgeStyle=orthogonalEdgeStyle;rounded=0;orthogonalLoop=1;jettySize=auto;html=1;" edge="1" parent="1" source="bIs_BHF1-kpY5Y5wh83X-5">
          <mxGeometry relative="1" as="geometry">
            <mxPoint x="524" y="400" as="targetPoint" />
          </mxGeometry>
        </mxCell>
        <mxCell id="bIs_BHF1-kpY5Y5wh83X-5" value="N == 0" style="rhombus;whiteSpace=wrap;html=1;" vertex="1" parent="1">
          <mxGeometry x="374" y="360" width="80" height="80" as="geometry" />
        </mxCell>
        <mxCell id="bIs_BHF1-kpY5Y5wh83X-9" value="" style="edgeStyle=orthogonalEdgeStyle;rounded=0;orthogonalLoop=1;jettySize=auto;html=1;" edge="1" parent="1" source="bIs_BHF1-kpY5Y5wh83X-6" target="bIs_BHF1-kpY5Y5wh83X-8">
          <mxGeometry relative="1" as="geometry" />
        </mxCell>
        <mxCell id="bIs_BHF1-kpY5Y5wh83X-12" value="" style="edgeStyle=orthogonalEdgeStyle;rounded=0;orthogonalLoop=1;jettySize=auto;html=1;" edge="1" parent="1" source="bIs_BHF1-kpY5Y5wh83X-6" target="bIs_BHF1-kpY5Y5wh83X-11">
          <mxGeometry relative="1" as="geometry" />
        </mxCell>
        <mxCell id="bIs_BHF1-kpY5Y5wh83X-6" value="N mod 5 == 0" style="rhombus;whiteSpace=wrap;html=1;" vertex="1" parent="1">
          <mxGeometry x="374" y="520" width="80" height="80" as="geometry" />
        </mxCell>
        <mxCell id="bIs_BHF1-kpY5Y5wh83X-14" value="" style="edgeStyle=orthogonalEdgeStyle;rounded=0;orthogonalLoop=1;jettySize=auto;html=1;" edge="1" parent="1" source="bIs_BHF1-kpY5Y5wh83X-8" target="bIs_BHF1-kpY5Y5wh83X-13">
          <mxGeometry relative="1" as="geometry" />
        </mxCell>
        <mxCell id="bIs_BHF1-kpY5Y5wh83X-16" value="" style="edgeStyle=orthogonalEdgeStyle;rounded=0;orthogonalLoop=1;jettySize=auto;html=1;" edge="1" parent="1" source="bIs_BHF1-kpY5Y5wh83X-8" target="bIs_BHF1-kpY5Y5wh83X-15">
          <mxGeometry relative="1" as="geometry" />
        </mxCell>
        <mxCell id="bIs_BHF1-kpY5Y5wh83X-8" value="N mod 3 == 0" style="rhombus;whiteSpace=wrap;html=1;" vertex="1" parent="1">
          <mxGeometry x="530" y="520" width="80" height="80" as="geometry" />
        </mxCell>
        <mxCell id="bIs_BHF1-kpY5Y5wh83X-20" value="" style="edgeStyle=orthogonalEdgeStyle;rounded=0;orthogonalLoop=1;jettySize=auto;html=1;" edge="1" parent="1" source="bIs_BHF1-kpY5Y5wh83X-11" target="bIs_BHF1-kpY5Y5wh83X-19">
          <mxGeometry relative="1" as="geometry" />
        </mxCell>
        <mxCell id="bIs_BHF1-kpY5Y5wh83X-25" value="" style="edgeStyle=orthogonalEdgeStyle;rounded=0;orthogonalLoop=1;jettySize=auto;html=1;" edge="1" parent="1" source="bIs_BHF1-kpY5Y5wh83X-11" target="bIs_BHF1-kpY5Y5wh83X-24">
          <mxGeometry relative="1" as="geometry" />
        </mxCell>
        <mxCell id="bIs_BHF1-kpY5Y5wh83X-11" value="N mod 3 == 0" style="rhombus;whiteSpace=wrap;html=1;" vertex="1" parent="1">
          <mxGeometry x="374" y="680" width="80" height="80" as="geometry" />
        </mxCell>
        <mxCell id="bIs_BHF1-kpY5Y5wh83X-18" style="edgeStyle=orthogonalEdgeStyle;rounded=0;orthogonalLoop=1;jettySize=auto;html=1;" edge="1" parent="1" source="bIs_BHF1-kpY5Y5wh83X-13" target="bIs_BHF1-kpY5Y5wh83X-2">
          <mxGeometry relative="1" as="geometry">
            <Array as="points">
              <mxPoint x="870" y="560" />
              <mxPoint x="870" y="270" />
            </Array>
          </mxGeometry>
        </mxCell>
        <mxCell id="bIs_BHF1-kpY5Y5wh83X-13" value="Escrever &quot;O número é múltiplo de 3 e 5&quot;" style="shape=parallelogram;perimeter=parallelogramPerimeter;whiteSpace=wrap;html=1;fixedSize=1;" vertex="1" parent="1">
          <mxGeometry x="670" y="530" width="120" height="60" as="geometry" />
        </mxCell>
        <mxCell id="bIs_BHF1-kpY5Y5wh83X-17" style="edgeStyle=orthogonalEdgeStyle;rounded=0;orthogonalLoop=1;jettySize=auto;html=1;" edge="1" parent="1" source="bIs_BHF1-kpY5Y5wh83X-15" target="bIs_BHF1-kpY5Y5wh83X-2">
          <mxGeometry relative="1" as="geometry">
            <Array as="points">
              <mxPoint x="870" y="720" />
              <mxPoint x="870" y="270" />
            </Array>
          </mxGeometry>
        </mxCell>
        <mxCell id="bIs_BHF1-kpY5Y5wh83X-15" value="Escrever &quot;O número é múltiplo de 5&quot;" style="shape=parallelogram;perimeter=parallelogramPerimeter;whiteSpace=wrap;html=1;fixedSize=1;" vertex="1" parent="1">
          <mxGeometry x="510" y="690" width="120" height="60" as="geometry" />
        </mxCell>
        <mxCell id="bIs_BHF1-kpY5Y5wh83X-21" style="edgeStyle=orthogonalEdgeStyle;rounded=0;orthogonalLoop=1;jettySize=auto;html=1;" edge="1" parent="1" source="bIs_BHF1-kpY5Y5wh83X-19" target="bIs_BHF1-kpY5Y5wh83X-2">
          <mxGeometry relative="1" as="geometry">
            <Array as="points">
              <mxPoint x="110" y="869.9999999999998" />
              <mxPoint x="110" y="270" />
            </Array>
          </mxGeometry>
        </mxCell>
        <mxCell id="bIs_BHF1-kpY5Y5wh83X-19" value="Escrever &quot;O número não é múltiplo de 3 e de 5&quot;" style="shape=parallelogram;perimeter=parallelogramPerimeter;whiteSpace=wrap;html=1;fixedSize=1;" vertex="1" parent="1">
          <mxGeometry x="300" y="840" width="227" height="60" as="geometry" />
        </mxCell>
        <mxCell id="bIs_BHF1-kpY5Y5wh83X-26" style="edgeStyle=orthogonalEdgeStyle;rounded=0;orthogonalLoop=1;jettySize=auto;html=1;" edge="1" parent="1" source="bIs_BHF1-kpY5Y5wh83X-24" target="bIs_BHF1-kpY5Y5wh83X-2">
          <mxGeometry relative="1" as="geometry">
            <Array as="points">
              <mxPoint x="110" y="720" />
              <mxPoint x="110" y="270" />
            </Array>
          </mxGeometry>
        </mxCell>
        <mxCell id="bIs_BHF1-kpY5Y5wh83X-24" value="Escrever &quot;O número é múltiplo de 3&quot;" style="shape=parallelogram;perimeter=parallelogramPerimeter;whiteSpace=wrap;html=1;fixedSize=1;" vertex="1" parent="1">
          <mxGeometry x="160" y="690" width="154" height="60" as="geometry" />
        </mxCell>
        <mxCell id="bIs_BHF1-kpY5Y5wh83X-31" value="F" style="ellipse;whiteSpace=wrap;html=1;" vertex="1" parent="1">
          <mxGeometry x="520" y="360" width="120" height="80" as="geometry" />
        </mxCell>
      </root>
    </mxGraphModel>
  </diagram>
</mxfile>
